<svg xmlns="http://www.w3.org/2000/svg" fill="currentColor" viewBox="0 0 64 64"><path d="M33.977 27.891c-2.197 0-3.125 2.217-3.125 4.07 0 1.855.948 4.092 3.166 4.092 2.317 0 3.205-2.156 3.205-4.131 0-1.936-1.071-4.031-3.246-4.031zM23.034 27.891c-2.439 0-3.407 2.379-3.407 4.252 0 1.875.967 4.253 3.407 4.253 2.438 0 3.406-2.379 3.406-4.253 0-1.873-.967-4.252-3.406-4.252zM32 1c-17.093 0-31 13.907-31 31 0 17.094 13.907 31 31 31 17.094 0 31-13.906 31-31 0-17.093-13.906-31-31-31zm-16.201 36.203h-1.209v-14.555h1.209v14.555zm7.235.303c-3.226 0-4.717-2.701-4.717-5.363 0-2.66 1.492-5.361 4.717-5.361 3.225-.001 4.716 2.7 4.716 5.361 0 2.662-1.491 5.363-4.716 5.363zm13.259 3.103c-.807.383-1.35.463-2.298.463-1.834 0-4.011-.625-4.011-2.721h1.311c.141 1.209 1.572 1.612 2.862 1.612 1.571 0 3.022-1.108 3.063-2.803v-1.896h-.04c-.584 1.189-1.976 1.896-3.285 1.896-3.044 0-4.354-2.318-4.354-5.1 0-2.74 1.229-5.281 4.313-5.281 1.472 0 2.52.705 3.326 1.875l.039-.08.063-1.491h1.25c-.041.686-.103 1.492-.103 2.277v6.069c.001 2.016.103 4.132-2.136 5.18zm9.148-3.103c-3.225 0-4.717-2.701-4.717-5.363 0-2.66 1.492-5.361 4.717-5.361 3.227-.001 4.718 2.7 4.718 5.361 0 2.662-1.491 5.363-4.718 5.363zM45.441 27.891c-2.438 0-3.405 2.379-3.405 4.252 0 1.875.968 4.253 3.405 4.253 2.439 0 3.406-2.379 3.406-4.253.003-1.873-.965-4.252-3.406-4.252z"/></svg>
