<svg xmlns="http://www.w3.org/2000/svg" xmlns:xlink="http://www.w3.org/1999/xlink" width="191.444" height="233.722" viewBox="0 0 191.444 233.722"><path fill="#010202" d="M46.25 90.427l42.089 81.145 8.868-18.183 9.444 18.183 40.895-83.84h-64.83v5.49h37.732l-23.392 47.956-26.32-50.699 26.32-50.695 9.226 18.901 4.931-2.415-11.001-22.555 6.286-12.103 18.095 37.073 4.938-2.415-22.88-46.877-9.439 18.182-8.873-18.182-42.089 81.034zm41.932-68.821l5.875 12.029-29.509 56.731 29.509 56.955-5.87 12.04-35.766-68.882 35.761-68.873zm38.365 71.616h12.215l-32.264 66.139-6.286-12.121 26.335-54.018z"/><defs><path id="a" d="M0 0h191.444v233.722h-191.444z"/></defs><clipPath id="b"><use xlink:href="#a" overflow="visible"/></clipPath><path clip-path="url(#b)" fill="#010202" d="M20.295 225.098h-1.187c-3.752 0-6.835-3.079-6.835-6.874v-13.682c0-3.796 3.083-6.876 6.835-6.876h1.187c3.752 0 6.834 3.08 6.834 6.876v.788h-4.029v-.788c0-1.545-1.227-2.843-2.804-2.843h-1.187c-1.578 0-2.804 1.298-2.804 2.843v13.682c0 1.543 1.226 2.845 2.804 2.845h1.187c1.577 0 2.804-1.302 2.804-2.845v-5.608h-3.2v-4.031l7.23-.006v9.646c-.001 3.794-3.083 6.873-6.835 6.873M40.089 225.098h-.871c-3.753 0-6.796-3.079-6.796-6.874v-20.544h3.991v20.544c0 1.543 1.262 2.845 2.805 2.845h.871c1.54 0 2.803-1.302 2.803-2.845v-20.544h3.99v20.544c0 3.795-3.042 6.874-6.793 6.874"/><path clip-path="url(#b)" fill="#010202" d="M64.911 224.665h-12.879v-4.031h4.424v-18.981h-4.032v-3.986h12.091v3.986h-4.029v18.981h4.425zM140.607 224.665h-12.879v-4.031h4.426v-18.981h-4.034v-3.986h12.095v3.986h-4.027v18.981h4.419zM77.999 224.664h-7.609l-.028-26.997h7.637c3.792 0 6.836 2.999 6.836 6.798v13.362c-.001 3.755-3.044 6.837-6.836 6.837m2.805-20.2c0-1.548-1.226-2.812-2.805-2.812h-3.592v18.981h3.592c1.579 0 2.805-1.227 2.805-2.808v-13.361zM98.345 225.099h-1.183c-3.76 0-6.837-3.08-6.837-6.874v-13.723c0-3.76 3.077-6.836 6.837-6.836h1.183c3.759 0 6.837 3.076 6.837 6.836v13.723c0 3.794-3.078 6.874-6.837 6.874m2.806-20.597c0-1.541-1.228-2.808-2.807-2.808h-1.183c-1.583 0-2.808 1.267-2.808 2.808v13.723c0 1.543 1.225 2.843 2.808 2.843h1.183c1.579 0 2.807-1.3 2.807-2.843v-13.723zM123.406 224.665h-12.43l-.016-26.984h4.027v22.953h8.419zM156.785 224.644l-5.53-18.902-1.564-4.665.065 4.665v18.902h-4.027v-26.964l7.026-.013 5.22 17.752 1.469 4.708.034-4.708v-17.698h4.027v26.923zM181.521 224.665h-13.299v-27.017h13.299v4.047h-9.25v6.89h8.416v4.03h-8.416v8.019h9.25z"/></svg>