<svg xmlns="http://www.w3.org/2000/svg" width="100%" height="100%" viewBox="0.5 640.5 206 324" enable-background="new 0.5 640.5 206 324"><path fill="#010202" d="M2.244 802.383l84.134 162.222 17.735-36.358 18.878 36.358 81.765-167.599h-129.615v10.965h75.431l-46.764 95.869-52.615-101.356 52.614-101.334 18.448 37.783 9.86-4.829-21.999-45.084 12.57-24.193 36.172 74.106 9.873-4.829-45.74-93.709-18.875 36.349-17.736-36.348-84.136 161.987zm83.824-137.571l11.746 24.039-58.992 113.415 58.992 113.862-11.735 24.064-71.496-137.706 71.485-137.674zm76.698 143.159h24.422l-64.5 132.222-12.57-24.229 52.648-107.993z"/></svg>
